<svg width="20" height="26" viewBox="0 0 20 26" fill="none" xmlns="http://www.w3.org/2000/svg">
<path d="M10 13C11.3185 13 12.6075 12.6188 13.7038 11.9046C14.8001 11.1903 15.6546 10.1752 16.1592 8.98744C16.6638 7.79973 16.7958 6.49279 16.5386 5.23192C16.2813 3.97104 15.6464 2.81285 14.714 1.90381C13.7817 0.994767 12.5938 0.375703 11.3006 0.124899C10.0074 -0.125905 8.66695 0.00281637 7.44878 0.494786C6.2306 0.986755 5.18941 1.81988 4.45687 2.8888C3.72433 3.95772 3.33333 5.21442 3.33333 6.5C3.3351 8.22338 4.03804 9.87568 5.2879 11.0943C6.53776 12.3129 8.23243 12.9983 10 13ZM10 2.16667C10.879 2.16667 11.7383 2.42081 12.4692 2.89697C13.2001 3.37312 13.7697 4.04989 14.1061 4.84171C14.4425 5.63352 14.5305 6.50481 14.359 7.34539C14.1876 8.18598 13.7643 8.9581 13.1427 9.56413C12.5211 10.1702 11.7292 10.5829 10.8671 10.7501C10.0049 10.9173 9.1113 10.8315 8.29918 10.5035C7.48707 10.1755 6.79294 9.62009 6.30458 8.90747C5.81622 8.19486 5.55556 7.35705 5.55556 6.5C5.55556 5.35073 6.02381 4.24853 6.8573 3.43587C7.6908 2.62322 8.82126 2.16667 10 2.16667Z" fill="white"/>
<path d="M10 15.1667C7.34874 15.1695 4.80691 16.1977 2.93218 18.0255C1.05745 19.8534 0.00294095 22.3317 0 24.9167C0 25.204 0.117063 25.4795 0.325437 25.6827C0.533811 25.8859 0.816426 26 1.11111 26C1.4058 26 1.68841 25.8859 1.89679 25.6827C2.10516 25.4795 2.22222 25.204 2.22222 24.9167C2.22222 22.9054 3.04166 20.9766 4.50028 19.5544C5.9589 18.1323 7.9372 17.3333 10 17.3333C12.0628 17.3333 14.0411 18.1323 15.4997 19.5544C16.9583 20.9766 17.7778 22.9054 17.7778 24.9167C17.7778 25.204 17.8948 25.4795 18.1032 25.6827C18.3116 25.8859 18.5942 26 18.8889 26C19.1836 26 19.4662 25.8859 19.6746 25.6827C19.8829 25.4795 20 25.204 20 24.9167C19.9971 22.3317 18.9425 19.8534 17.0678 18.0255C15.1931 16.1977 12.6513 15.1695 10 15.1667Z" fill="white"/>
</svg>
