<svg width="12" height="14" viewBox="0 0 12 14" fill="none" xmlns="http://www.w3.org/2000/svg">
<path d="M5.87073 13.3008L5.8471 13.3525C5.79916 13.3304 5.75654 13.2984 5.72218 13.2586L2.29967 9.30466C1.45989 8.3931 0.995936 7.20119 1.00003 5.96554M5.87073 13.3008L9.65792 9.26682C10.4885 8.36565 10.9472 7.18723 10.9431 5.96563H11C10.9999 4.64861 10.473 3.38542 9.53536 2.45426C8.59766 1.52307 7.32594 1 5.99999 1C4.67404 1 3.40233 1.52307 2.46462 2.45426C1.52693 3.38545 1.00005 4.64848 1.00003 5.96554M5.87073 13.3008L5.8471 13.3525C5.89506 13.3744 5.94722 13.3857 5.99999 13.3857C6.05276 13.3857 6.10492 13.3744 6.15287 13.3525C6.20082 13.3304 6.24345 13.2984 6.2778 13.2586L9.70031 9.30466L5.87073 13.3008ZM5.99998 12.4658L2.85461 8.83385L2.8534 8.83251C2.29364 8.22612 1.9237 7.4711 1.78866 6.65958C1.65361 5.84806 1.75928 5.01505 2.09281 4.26213C2.42633 3.50919 2.97331 2.86885 3.6671 2.41924C4.36088 1.96963 5.17147 1.7302 5.99999 1.7302C6.82851 1.7302 7.63909 1.96963 8.33288 2.41924C9.02666 2.86885 9.57365 3.50919 9.90717 4.26213C10.2407 5.01505 10.3463 5.84806 10.2113 6.65958C10.0844 7.42248 9.74983 8.13544 9.24514 8.72193V8.71549L5.99998 12.4658Z" fill="white"/>
<path d="M5.99942 3.76103C5.56054 3.76103 5.13149 3.89026 4.76652 4.13244C4.40154 4.37462 4.11701 4.71888 3.94898 5.12173C3.78094 5.52458 3.73697 5.96789 3.82264 6.39559C3.9083 6.82328 4.11975 7.21608 4.43018 7.52435C4.7406 7.83262 5.13604 8.04251 5.5665 8.12753C5.99696 8.21256 6.44313 8.16893 6.84864 8.00212C7.25414 7.83533 7.6008 7.55284 7.84472 7.19031C8.08864 6.82779 8.21886 6.40153 8.21886 5.96546C8.21886 5.38068 7.98493 4.81993 7.56866 4.40655C7.15241 3.99318 6.58792 3.76103 5.99942 3.76103ZM5.99942 7.44264C5.70505 7.44264 5.41733 7.35595 5.17262 7.19359C4.92793 7.03123 4.73728 6.8005 4.62471 6.53062C4.51214 6.26075 4.4827 5.96381 4.54007 5.67735C4.59746 5.39087 4.7391 5.12767 4.94716 4.92106C5.15523 4.71444 5.42037 4.57369 5.70907 4.51666C5.99777 4.45963 6.29702 4.48891 6.56895 4.60076C6.84087 4.71262 7.07324 4.902 7.23668 5.14492C7.40012 5.38783 7.48734 5.67338 7.48734 5.96546C7.48734 6.3571 7.33068 6.73278 7.05168 7.00985C6.77267 7.28691 6.39417 7.44264 5.99942 7.44264Z" fill="white"/>
<path d="M5.87073 13.3008L5.8471 13.3525M5.87073 13.3008L9.65792 9.26682C10.4885 8.36565 10.9472 7.18723 10.9431 5.96563H11C10.9999 4.64861 10.473 3.38542 9.53536 2.45426C8.59766 1.52307 7.32594 1 5.99999 1C4.67404 1 3.40233 1.52307 2.46462 2.45426C1.52693 3.38545 1.00005 4.64848 1.00003 5.96554M5.87073 13.3008L9.70031 9.30466L6.2778 13.2586C6.24345 13.2984 6.20082 13.3304 6.15287 13.3525C6.10492 13.3744 6.05276 13.3857 5.99999 13.3857C5.94722 13.3857 5.89506 13.3744 5.8471 13.3525M5.8471 13.3525C5.79916 13.3304 5.75654 13.2984 5.72218 13.2586L2.29967 9.30466C1.45989 8.3931 0.995936 7.20119 1.00003 5.96554M1.00003 5.96554L1.05683 5.96563M5.99998 12.4658L2.85461 8.83385L2.8534 8.83251C2.29364 8.22612 1.9237 7.4711 1.78866 6.65958C1.65361 5.84806 1.75928 5.01505 2.09281 4.26213C2.42633 3.50919 2.97331 2.86885 3.6671 2.41924C4.36088 1.96963 5.17147 1.7302 5.99999 1.7302C6.82851 1.7302 7.63909 1.96963 8.33288 2.41924C9.02666 2.86885 9.57365 3.50919 9.90717 4.26213C10.2407 5.01505 10.3463 5.84806 10.2113 6.65958C10.0844 7.42248 9.74983 8.13544 9.24514 8.72193V8.71549L5.99998 12.4658ZM5.99942 3.76103C5.56054 3.76103 5.13149 3.89026 4.76652 4.13244C4.40154 4.37462 4.11701 4.71888 3.94898 5.12173C3.78094 5.52458 3.73697 5.96789 3.82264 6.39559C3.9083 6.82328 4.11975 7.21608 4.43018 7.52435C4.7406 7.83262 5.13604 8.04251 5.5665 8.12753C5.99696 8.21256 6.44313 8.16893 6.84864 8.00212C7.25414 7.83533 7.6008 7.55284 7.84472 7.19031C8.08864 6.82779 8.21886 6.40153 8.21886 5.96546C8.21886 5.38068 7.98493 4.81993 7.56866 4.40655C7.15241 3.99318 6.58792 3.76103 5.99942 3.76103ZM5.99942 7.44264C5.70505 7.44264 5.41733 7.35595 5.17262 7.19359C4.92793 7.03123 4.73728 6.8005 4.62471 6.53062C4.51214 6.26075 4.4827 5.96381 4.54007 5.67735C4.59746 5.39087 4.7391 5.12767 4.94716 4.92106C5.15523 4.71444 5.42037 4.57369 5.70907 4.51666C5.99777 4.45963 6.29702 4.48891 6.56895 4.60076C6.84087 4.71262 7.07324 4.902 7.23668 5.14492C7.40012 5.38783 7.48734 5.67338 7.48734 5.96546C7.48734 6.3571 7.33068 6.73278 7.05168 7.00985C6.77267 7.28691 6.39417 7.44264 5.99942 7.44264Z" stroke="white" stroke-width="0.5"/>
</svg>
