<svg width="15" height="12" viewBox="0 0 15 12" fill="white" xmlns="http://www.w3.org/2000/svg">
<g opacity="0.5">
<path d="M14.9713 2.32261L9.71 6.62727C9.12336 7.10604 8.32859 7.37491 7.5 7.37491C6.67141 7.37491 5.87664 7.10604 5.29 6.62727L0.02875 2.32261C0.02 2.40341 0 2.47653 0 2.55682V8.69318C0.000992411 9.37104 0.330551 10.0209 0.916387 10.5002C1.50222 10.9795 2.2965 11.2492 3.125 11.25H11.875C12.7035 11.2492 13.4978 10.9795 14.0836 10.5002C14.6694 10.0209 14.999 9.37104 15 8.69318V2.55682C15 2.47653 14.98 2.40341 14.9713 2.32261Z" fill="white"/>
<path d="M8.82625 5.9042L14.535 1.2329C14.2585 0.85772 13.8684 0.547178 13.4025 0.331226C12.9366 0.115273 12.4105 0.00119693 11.875 0H3.125C2.58951 0.00119693 2.06344 0.115273 1.59752 0.331226C1.1316 0.547178 0.741549 0.85772 0.465 1.2329L6.17375 5.9042C6.52598 6.19124 7.00287 6.3524 7.5 6.3524C7.99713 6.3524 8.47402 6.19124 8.82625 5.9042Z" fill="white"/>
</g>
</svg>
