<svg width="13" height="17" viewBox="0 0 13 17" fill="none" xmlns="http://www.w3.org/2000/svg">
<path d="M6.5 0C4.77609 0 3.12279 0.696526 1.90381 1.93635C0.684819 3.17617 0 4.85774 0 6.61111C0 11.963 6.5 17 6.5 17C6.5 17 13 11.963 13 6.61111C13 4.85774 12.3152 3.17617 11.0962 1.93635C9.87721 0.696526 8.22391 0 6.5 0ZM6.5 9.75926C5.88782 9.75926 5.28939 9.57462 4.78038 9.2287C4.27137 8.88278 3.87464 8.3911 3.64037 7.81586C3.4061 7.24061 3.34481 6.60762 3.46424 5.99694C3.58367 5.38626 3.87846 4.82531 4.31134 4.38503C4.74421 3.94476 5.29573 3.64493 5.89615 3.52345C6.49657 3.40198 7.11892 3.46433 7.6845 3.7026C8.25008 3.94088 8.73349 4.34438 9.0736 4.86209C9.41371 5.3798 9.59524 5.98847 9.59524 6.61111C9.59524 7.44605 9.26913 8.2468 8.68866 8.83719C8.10819 9.42758 7.32091 9.75926 6.5 9.75926Z" fill="white"/>
</svg>
