<svg width="12" height="16" viewBox="0 0 12 16" fill="none" xmlns="http://www.w3.org/2000/svg">
<path d="M6 0C4.4087 0 2.88258 0.655554 1.75736 1.82245C0.632141 2.98934 0 4.57199 0 6.22222C0 11.2593 6 16 6 16C6 16 12 11.2593 12 6.22222C12 4.57199 11.3679 2.98934 10.2426 1.82245C9.11742 0.655554 7.5913 0 6 0ZM6 9.18519C5.43491 9.18519 4.88251 9.01141 4.41266 8.68584C3.9428 8.36026 3.57659 7.89751 3.36034 7.3561C3.14409 6.81469 3.08751 6.21894 3.19776 5.64418C3.308 5.06942 3.58012 4.54147 3.9797 4.12709C4.37927 3.71271 4.88837 3.43052 5.4426 3.31619C5.99683 3.20186 6.57131 3.26054 7.09338 3.4848C7.61546 3.70906 8.06168 4.08883 8.37563 4.57609C8.68958 5.06335 8.85714 5.6362 8.85714 6.22222C8.85714 7.00805 8.55612 7.76169 8.02031 8.31735C7.48449 8.87302 6.75776 9.18519 6 9.18519Z" fill="#270041"/>
</svg>
