<svg width="13" height="18" viewBox="0 0 13 18" fill="none" xmlns="http://www.w3.org/2000/svg">
<path opacity="0.5" d="M6.5 0.25C4.77609 0.25 3.12279 0.946526 1.90381 2.18635C0.684819 3.42617 0 5.10774 0 6.86111C0 12.213 6.5 17.25 6.5 17.25C6.5 17.25 13 12.213 13 6.86111C13 5.10774 12.3152 3.42617 11.0962 2.18635C9.87721 0.946526 8.22391 0.25 6.5 0.25ZM6.5 10.0093C5.88782 10.0093 5.28939 9.82462 4.78038 9.4787C4.27137 9.13278 3.87464 8.6411 3.64037 8.06585C3.4061 7.49061 3.34481 6.85762 3.46424 6.24694C3.58367 5.63626 3.87846 5.07531 4.31134 4.63503C4.74421 4.19476 5.29573 3.89493 5.89615 3.77345C6.49657 3.65198 7.11892 3.71433 7.6845 3.9526C8.25008 4.19088 8.73349 4.59438 9.0736 5.11209C9.41371 5.6298 9.59524 6.23847 9.59524 6.86111C9.59524 7.69605 9.26913 8.4968 8.68866 9.08719C8.10819 9.67758 7.32091 10.0093 6.5 10.0093Z" fill="white"/>
</svg>
