<svg width="20" height="12" viewBox="0 0 20 12" fill="none" xmlns="http://www.w3.org/2000/svg">
<path d="M7.21304 3.34262H1.6C1.44087 3.34262 1.28826 3.28041 1.17574 3.16966C1.06321 3.05892 1 2.90871 1 2.7521C1 2.59548 1.06321 2.44528 1.17574 2.33453C1.28826 2.22378 1.44087 2.16157 1.6 2.16157H7.21304C7.37217 2.16157 7.52479 2.22378 7.63731 2.33453C7.74983 2.44528 7.81305 2.59548 7.81305 2.7521C7.81305 2.90871 7.74983 3.05892 7.63731 3.16966C7.52479 3.28041 7.37217 3.34262 7.21304 3.34262ZM7.21304 6.59053H1.6C1.44087 6.59053 1.28826 6.52831 1.17574 6.41757C1.06321 6.30682 1 6.15662 1 6C1 5.84338 1.06321 5.69318 1.17574 5.58243C1.28826 5.47169 1.44087 5.40947 1.6 5.40947H7.21304C7.37217 5.40947 7.52479 5.47169 7.63731 5.58243C7.74983 5.69318 7.81305 5.84338 7.81305 6C7.81305 6.15662 7.74983 6.30682 7.63731 6.41757C7.52479 6.52831 7.37217 6.59053 7.21304 6.59053ZM7.21304 9.83843H1.6C1.44087 9.83843 1.28826 9.77622 1.17574 9.66547C1.06321 9.55473 1 9.40452 1 9.2479C1 9.09129 1.06321 8.94108 1.17574 8.83034C1.28826 8.71959 1.44087 8.65738 1.6 8.65738H7.21304C7.37217 8.65738 7.52479 8.71959 7.63731 8.83034C7.74983 8.94108 7.81305 9.09129 7.81305 9.2479C7.81305 9.40452 7.74983 9.55473 7.63731 9.66547C7.52479 9.77622 7.37217 9.83843 7.21304 9.83843ZM18.4001 11C18.3213 11.0001 18.2433 10.9848 18.1705 10.9551C18.0977 10.9255 18.0316 10.8819 17.9759 10.827L15.7007 8.58769C15.6434 8.53322 15.5977 8.46806 15.5662 8.39601C15.5348 8.32396 15.5182 8.24648 15.5176 8.16807C15.5169 8.08966 15.532 8.01189 15.5622 7.93932C15.5924 7.86675 15.6369 7.80081 15.6933 7.74537C15.7496 7.68992 15.8166 7.64607 15.8903 7.61638C15.9641 7.58669 16.0431 7.57175 16.1227 7.57243C16.2024 7.57311 16.2811 7.5894 16.3544 7.62035C16.4276 7.6513 16.4938 7.69629 16.5491 7.75269L18.8243 9.99197C18.9082 10.0746 18.9653 10.1798 18.9885 10.2943C19.0116 10.4088 18.9997 10.5276 18.9543 10.6354C18.9089 10.7433 18.832 10.8355 18.7334 10.9004C18.6348 10.9653 18.5188 11 18.4001 11Z" fill="#270041"/>
<path d="M13.3559 9.88686C12.7629 9.88815 12.1755 9.77403 11.6275 9.55107C11.0795 9.32811 10.5816 9.00071 10.1627 8.58769C9.31006 7.74796 8.83966 6.63187 8.83966 5.4449C8.83966 4.25794 9.31006 3.14184 10.1627 2.30211C11.0153 1.46238 12.1493 1 13.3559 1C14.5625 1 15.6959 1.46238 16.5491 2.30211C17.4023 3.14125 17.8721 4.25676 17.8721 5.4449C17.8721 6.63305 17.4023 7.74796 16.5491 8.58769C16.1299 9.00045 15.6321 9.32768 15.0841 9.55062C14.5361 9.77356 13.9488 9.88783 13.3559 9.88686ZM13.3559 2.18106C12.4703 2.18106 11.6375 2.52061 11.0117 3.13771C10.3859 3.75481 10.0397 4.57328 10.0397 5.4449C10.0386 5.87373 10.1239 6.29851 10.2907 6.69464C10.4576 7.09078 10.7026 7.4504 11.0117 7.75269C11.634 8.36367 12.4772 8.70678 13.3562 8.70678C14.2352 8.70678 15.0784 8.36367 15.7007 7.75269C16.0097 7.4504 16.2548 7.09078 16.4216 6.69464C16.5885 6.29851 16.6738 5.87373 16.6727 5.4449C16.6738 5.01608 16.5885 4.5913 16.4216 4.19517C16.2548 3.79903 16.0097 3.43941 15.7007 3.13712C15.3935 2.83307 15.0281 2.59201 14.6256 2.4279C14.2231 2.26378 13.7915 2.17989 13.3559 2.18106Z" fill="#270041"/>
<path d="M7.21304 3.34262H1.6C1.44087 3.34262 1.28826 3.28041 1.17574 3.16966C1.06321 3.05892 1 2.90871 1 2.7521C1 2.59548 1.06321 2.44528 1.17574 2.33453C1.28826 2.22378 1.44087 2.16157 1.6 2.16157H7.21304C7.37217 2.16157 7.52479 2.22378 7.63731 2.33453C7.74983 2.44528 7.81305 2.59548 7.81305 2.7521C7.81305 2.90871 7.74983 3.05892 7.63731 3.16966C7.52479 3.28041 7.37217 3.34262 7.21304 3.34262ZM7.21304 6.59053H1.6C1.44087 6.59053 1.28826 6.52831 1.17574 6.41757C1.06321 6.30682 1 6.15662 1 6C1 5.84338 1.06321 5.69318 1.17574 5.58243C1.28826 5.47169 1.44087 5.40947 1.6 5.40947H7.21304C7.37217 5.40947 7.52479 5.47169 7.63731 5.58243C7.74983 5.69318 7.81305 5.84338 7.81305 6C7.81305 6.15662 7.74983 6.30682 7.63731 6.41757C7.52479 6.52831 7.37217 6.59053 7.21304 6.59053ZM7.21304 9.83843H1.6C1.44087 9.83843 1.28826 9.77622 1.17574 9.66547C1.06321 9.55473 1 9.40452 1 9.2479C1 9.09129 1.06321 8.94108 1.17574 8.83034C1.28826 8.71959 1.44087 8.65738 1.6 8.65738H7.21304C7.37217 8.65738 7.52479 8.71959 7.63731 8.83034C7.74983 8.94108 7.81305 9.09129 7.81305 9.2479C7.81305 9.40452 7.74983 9.55473 7.63731 9.66547C7.52479 9.77622 7.37217 9.83843 7.21304 9.83843ZM18.4001 11C18.3213 11.0001 18.2433 10.9848 18.1705 10.9551C18.0977 10.9255 18.0316 10.8819 17.9759 10.827L15.7007 8.58769C15.6434 8.53322 15.5977 8.46806 15.5662 8.39601C15.5348 8.32396 15.5182 8.24648 15.5176 8.16807C15.5169 8.08966 15.532 8.01189 15.5622 7.93932C15.5924 7.86675 15.6369 7.80081 15.6933 7.74537C15.7496 7.68992 15.8166 7.64607 15.8903 7.61638C15.9641 7.58669 16.0431 7.57175 16.1227 7.57243C16.2024 7.57311 16.2811 7.5894 16.3544 7.62035C16.4276 7.6513 16.4938 7.69629 16.5491 7.75269L18.8243 9.99197C18.9082 10.0746 18.9653 10.1798 18.9885 10.2943C19.0116 10.4088 18.9997 10.5276 18.9543 10.6354C18.9089 10.7433 18.832 10.8355 18.7334 10.9004C18.6348 10.9653 18.5188 11 18.4001 11Z" stroke="#270041" stroke-width="0.3"/>
<path d="M13.3559 9.88686C12.7629 9.88815 12.1755 9.77403 11.6275 9.55107C11.0795 9.32811 10.5816 9.00071 10.1627 8.58769C9.31006 7.74796 8.83966 6.63187 8.83966 5.4449C8.83966 4.25794 9.31006 3.14184 10.1627 2.30211C11.0153 1.46238 12.1493 1 13.3559 1C14.5625 1 15.6959 1.46238 16.5491 2.30211C17.4023 3.14125 17.8721 4.25676 17.8721 5.4449C17.8721 6.63305 17.4023 7.74796 16.5491 8.58769C16.1299 9.00045 15.6321 9.32768 15.0841 9.55062C14.5361 9.77356 13.9488 9.88783 13.3559 9.88686ZM13.3559 2.18106C12.4703 2.18106 11.6375 2.52061 11.0117 3.13771C10.3859 3.75481 10.0397 4.57328 10.0397 5.4449C10.0386 5.87373 10.1239 6.29851 10.2907 6.69464C10.4576 7.09078 10.7026 7.4504 11.0117 7.75269C11.634 8.36367 12.4772 8.70678 13.3562 8.70678C14.2352 8.70678 15.0784 8.36367 15.7007 7.75269C16.0097 7.4504 16.2548 7.09078 16.4216 6.69464C16.5885 6.29851 16.6738 5.87373 16.6727 5.4449C16.6738 5.01608 16.5885 4.5913 16.4216 4.19517C16.2548 3.79903 16.0097 3.43941 15.7007 3.13712C15.3935 2.83307 15.0281 2.59201 14.6256 2.4279C14.2231 2.26378 13.7915 2.17989 13.3559 2.18106Z" stroke="#270041" stroke-width="0.3"/>
</svg>
