<svg width="12" height="15" viewBox="0 0 12 15" fill="none" xmlns="http://www.w3.org/2000/svg">
<path d="M5.99985 7.46143C6.70983 7.46143 7.40387 7.25616 7.99421 6.87157C8.58454 6.48699 9.04464 5.94036 9.31634 5.30082C9.58804 4.66128 9.65913 3.95754 9.52062 3.27861C9.38211 2.59968 9.04022 1.97604 8.53818 1.48655C8.03615 0.99707 7.39652 0.663727 6.70017 0.528679C6.00383 0.393631 5.28205 0.462942 4.62611 0.727849C3.97017 0.992756 3.40953 1.44136 3.01509 2.01693C2.62064 2.5925 2.41011 3.26919 2.41011 3.96143C2.41106 4.8894 2.78957 5.7791 3.46257 6.43528C4.13557 7.09145 5.04808 7.4605 5.99985 7.46143ZM5.99985 1.62809C6.47317 1.62809 6.93587 1.76494 7.32942 2.02133C7.72297 2.27772 8.02971 2.64214 8.21084 3.0685C8.39198 3.49486 8.43937 3.96402 8.34703 4.41664C8.25469 4.86926 8.02676 5.28502 7.69207 5.61134C7.35738 5.93767 6.93096 6.15989 6.46673 6.24993C6.0025 6.33996 5.52132 6.29375 5.08403 6.11715C4.64673 5.94054 4.27297 5.64147 4.01001 5.25776C3.74704 4.87404 3.60669 4.42292 3.60669 3.96143C3.60669 3.34259 3.85882 2.7491 4.30763 2.31151C4.75643 1.87393 5.36514 1.62809 5.99985 1.62809Z" fill="#270041"/>
<path d="M5.99985 8.62809C4.57225 8.62964 3.20357 9.18326 2.1941 10.1675C1.18463 11.1517 0.616818 12.4862 0.615234 13.8781C0.615234 14.0328 0.678268 14.1812 0.79047 14.2906C0.902671 14.4 1.05485 14.4614 1.21353 14.4614C1.3722 14.4614 1.52438 14.4 1.63658 14.2906C1.74878 14.1812 1.81182 14.0328 1.81182 13.8781C1.81182 12.7951 2.25305 11.7565 3.03846 10.9907C3.82387 10.225 4.88911 9.79476 5.99985 9.79476C7.11059 9.79476 8.17583 10.225 8.96124 10.9907C9.74665 11.7565 10.1879 12.7951 10.1879 13.8781C10.1879 14.0328 10.2509 14.1812 10.3631 14.2906C10.4753 14.4 10.6275 14.4614 10.7862 14.4614C10.9449 14.4614 11.097 14.4 11.2092 14.2906C11.3214 14.1812 11.3845 14.0328 11.3845 13.8781C11.3829 12.4862 10.8151 11.1517 9.8056 10.1675C8.79613 9.18326 7.42745 8.62964 5.99985 8.62809Z" fill="#270041"/>
<path d="M5.99985 7.46143C6.70983 7.46143 7.40387 7.25616 7.99421 6.87157C8.58454 6.48699 9.04464 5.94036 9.31634 5.30082C9.58804 4.66128 9.65913 3.95754 9.52062 3.27861C9.38211 2.59968 9.04022 1.97604 8.53818 1.48655C8.03615 0.99707 7.39652 0.663727 6.70017 0.528679C6.00383 0.393631 5.28205 0.462942 4.62611 0.727849C3.97017 0.992756 3.40953 1.44136 3.01509 2.01693C2.62064 2.5925 2.41011 3.26919 2.41011 3.96143C2.41106 4.8894 2.78957 5.7791 3.46257 6.43528C4.13557 7.09145 5.04808 7.4605 5.99985 7.46143ZM5.99985 1.62809C6.47317 1.62809 6.93587 1.76494 7.32942 2.02133C7.72297 2.27772 8.02971 2.64214 8.21084 3.0685C8.39198 3.49486 8.43937 3.96402 8.34703 4.41664C8.25469 4.86926 8.02676 5.28502 7.69207 5.61134C7.35738 5.93767 6.93096 6.15989 6.46673 6.24993C6.0025 6.33996 5.52132 6.29375 5.08403 6.11715C4.64673 5.94054 4.27297 5.64147 4.01001 5.25776C3.74704 4.87404 3.60669 4.42292 3.60669 3.96143C3.60669 3.34259 3.85882 2.7491 4.30763 2.31151C4.75643 1.87393 5.36514 1.62809 5.99985 1.62809Z" stroke="#270041" stroke-width="0.3"/>
<path d="M5.99985 8.62809C4.57225 8.62964 3.20357 9.18326 2.1941 10.1675C1.18463 11.1517 0.616818 12.4862 0.615234 13.8781C0.615234 14.0328 0.678268 14.1812 0.79047 14.2906C0.902671 14.4 1.05485 14.4614 1.21353 14.4614C1.3722 14.4614 1.52438 14.4 1.63658 14.2906C1.74878 14.1812 1.81182 14.0328 1.81182 13.8781C1.81182 12.7951 2.25305 11.7565 3.03846 10.9907C3.82387 10.225 4.88911 9.79476 5.99985 9.79476C7.11059 9.79476 8.17583 10.225 8.96124 10.9907C9.74665 11.7565 10.1879 12.7951 10.1879 13.8781C10.1879 14.0328 10.2509 14.1812 10.3631 14.2906C10.4753 14.4 10.6275 14.4614 10.7862 14.4614C10.9449 14.4614 11.097 14.4 11.2092 14.2906C11.3214 14.1812 11.3845 14.0328 11.3845 13.8781C11.3829 12.4862 10.8151 11.1517 9.8056 10.1675C8.79613 9.18326 7.42745 8.62964 5.99985 8.62809Z" stroke="#270041" stroke-width="0.3"/>
</svg>
