<svg width="14" height="15" viewBox="0 0 14 15" fill="none" xmlns="http://www.w3.org/2000/svg">
<path opacity="0.5" d="M9.33586e-05 3.90351C9.33586e-05 8.677 5.90827 15 10.3584 15C11.3324 15 12.2422 14.6064 12.9129 13.8879L13.4962 13.1693C14.1727 12.4446 14.1727 11.2199 13.467 10.4639C13.4495 10.4452 12.0439 9.28931 12.0439 9.28931C11.7072 8.9464 11.2604 8.75519 10.7958 8.75519C10.3312 8.75519 9.88438 8.9464 9.54767 9.28931L8.69614 10.0203C6.82979 9.17059 5.50584 7.74605 4.65432 5.67795L5.33087 4.76574C5.65363 4.40649 5.83393 3.92727 5.83393 3.42866C5.83393 2.93005 5.65363 2.45083 5.33087 2.09158C5.33087 2.09158 4.25188 0.585812 4.23439 0.567067C4.06669 0.387294 3.86758 0.244682 3.64841 0.147381C3.42925 0.0500811 3.19434 0 2.9571 0C2.71986 0 2.48495 0.0500811 2.26579 0.147381C2.04662 0.244682 1.8475 0.387294 1.67981 0.567067L1.06742 1.13564C0.726192 1.49613 0.455923 1.92627 0.272596 2.40062C0.0892687 2.87496 -0.00339315 3.38388 9.33586e-05 3.89726V3.90351Z" fill="white"/>
</svg>
