<svg width="16" height="16" viewBox="0 0 16 16" fill="none" xmlns="http://www.w3.org/2000/svg">
<path d="M0 4.1637C0 9.25544 6.75225 16 11.8381 16C12.9513 16 13.9911 15.5801 14.7576 14.8137L15.4242 14.0473C16.1974 13.2742 16.1974 11.9679 15.3909 11.1615C15.3709 11.1415 13.7645 9.90857 13.7645 9.90857C12.9646 9.14881 11.7048 9.14881 10.9116 9.90857L9.93841 10.6883C7.80541 9.78194 6.29232 8.26242 5.31915 6.05644L6.09236 5.08341C6.8589 4.29033 6.8589 3.02406 6.09236 2.23097C6.09236 2.23097 4.85922 0.624805 4.83922 0.604811C4.03269 -0.201604 2.72623 -0.201604 1.91969 0.604811L1.2198 1.21129C0.419932 2.00437 0 3.04405 0 4.15703V4.1637Z" fill="white"/>
</svg>
