<svg width="501" height="127" viewBox="0 0 501 127" fill="none" xmlns="http://www.w3.org/2000/svg">
<path d="M89.9034 2.43091H36.5542C18.0338 2.43091 2.84327 17.3298 2.4787 35.7772H17.3047C17.6693 25.4719 26.2003 17.2569 36.5785 17.2569H89.9277C100.525 17.2569 109.201 25.9337 109.201 36.5307V82.4669H124.027V36.5064C124.027 17.6944 108.764 2.43091 89.952 2.43091H89.9034Z" fill="white"/>
<path d="M17.3047 50.6037H56.5814C63.2409 50.6037 68.7338 55.8536 69.1713 62.4645H17.3047V50.6037H2.4787V77.2905H70.2164C73.4733 88.8596 84.0702 97.2934 96.5872 97.2934V82.4674C89.6117 82.4674 83.9973 76.8287 83.9973 69.8775V62.4645C83.6327 47.7114 71.4803 35.7777 56.5814 35.7777H17.3047V50.6037Z" fill="white"/>
<path d="M124.003 82.4651V89.8781C124.003 92.4058 123.711 94.9092 123.177 97.2911H107.694C104.802 104.267 97.9239 109.152 89.9032 109.152H53.0813C55.366 106.041 59.0846 103.975 63.2408 103.975V89.1489C55.9007 89.1489 49.2412 92.0412 44.283 96.7807C38.0609 88.1038 27.9744 82.4894 16.5754 82.4894V97.3154C27.1723 97.3154 35.8492 105.992 35.8492 116.589V124.002H89.9518C106.188 124.002 119.823 112.579 123.225 97.3154H123.298C126.555 97.3154 129.229 99.9889 129.229 103.246H144.055C144.055 92.0655 135.159 82.9512 124.052 82.4894L124.003 82.4651Z" fill="white"/>
<path d="M83.2436 36.5084C83.2436 40.2028 86.2331 43.168 89.9031 43.168C93.5732 43.168 96.5627 40.1785 96.5627 36.5084C96.5627 32.8384 93.5732 29.8489 89.9031 29.8489C86.2331 29.8489 83.2436 32.8384 83.2436 36.5084Z" fill="white"/>
<path d="M178.034 49.8507H189.287V26.3721C193.735 26.4451 198.255 26.518 202.995 26.6638V17.2578H164.399V26.6638C168.992 26.518 173.586 26.3721 178.034 26.3721V49.8507Z" fill="white"/>
<path d="M227.008 16.2129C220.106 16.2129 215.002 17.7684 211.818 20.7336C208.634 23.7717 207.005 27.9278 207.005 33.2506C207.005 38.5734 208.634 42.8754 211.891 45.8406C215.148 48.8058 220.179 50.2883 226.935 50.2883C233.692 50.2883 239.015 48.8058 242.199 45.8406C245.383 42.8754 247.011 38.6463 247.011 33.2506C247.011 27.8549 245.383 23.6988 242.199 20.7336C239.015 17.6955 233.911 16.2129 227.008 16.2129ZM234.203 39.2539C232.793 40.5178 230.338 41.1011 227.008 41.174C223.752 41.174 221.37 40.5178 219.887 39.2539C218.404 37.9901 217.675 35.9971 217.675 33.3235C217.675 30.65 218.404 28.7299 219.887 27.4661C221.297 26.2022 223.654 25.546 227.008 25.546C230.362 25.546 232.72 26.2022 234.203 27.4661C235.685 28.7299 236.439 30.65 236.439 33.3235C236.439 35.9971 235.685 37.9901 234.203 39.2539Z" fill="white"/>
<path d="M261.691 49.8514V37.6261H278.218V49.8514H288.815C288.597 44.8203 288.524 39.3274 288.524 33.5428C288.524 27.7583 288.597 22.2897 288.815 17.2343H278.218V29.4596H261.691V17.2343H251.094C251.313 23.0188 251.459 28.4874 251.459 33.5428C251.459 38.5983 251.313 44.0669 251.094 49.8514H261.691Z" fill="white"/>
<path d="M303.399 49.8514V37.6261H319.926V49.8514H330.523C330.304 44.8203 330.231 39.3274 330.231 33.5428C330.231 27.7583 330.304 22.2897 330.523 17.2343H319.926V29.4596H303.399V17.2343H292.802C293.021 23.0188 293.166 28.4874 293.166 33.5428C293.166 38.5983 293.021 44.0669 292.802 49.8514H303.399Z" fill="white"/>
<path d="M346.296 43.4096H360.685C361.657 46.0102 362.386 48.149 362.97 49.8504H374.612L361.949 17.1603H345.422L332.832 49.8504H344.085L346.296 43.4096ZM353.491 24.1358L354.609 27.0281C355.8 30.1391 356.991 33.323 358.084 36.4341V36.507H348.897C350.89 30.9412 352.446 26.8822 353.491 24.1358Z" fill="white"/>
<path d="M197.064 87.8629C195.946 87.2796 194.464 86.9637 192.617 86.9637C191.912 86.9637 191.207 87.0123 190.478 87.1824C192.641 86.5262 194.367 85.8456 195.582 85.1894C196.991 84.363 197.964 83.6339 198.401 82.8075C198.912 82.0055 199.13 81.1062 199.13 80.0611C199.13 78.2868 198.474 76.7313 197.064 75.3216C195.655 73.9119 193.735 72.7939 191.28 71.9918C188.825 71.1898 186.103 70.8009 183.065 70.8009C178.325 70.8009 174.461 71.7002 171.496 73.4744C168.458 75.2487 166.246 77.7035 164.836 80.9604C168.458 81.4708 171.885 82.4429 175.068 83.7068C175.798 82.0784 176.77 80.8145 178.107 79.9395C179.443 79.0403 181.145 78.6028 183.211 78.6028C184.839 78.6028 186.03 78.8215 186.759 79.259C187.513 79.7694 187.877 80.377 187.877 81.1062C187.877 81.7624 187.148 82.1513 185.738 82.37C184.329 82.5888 182.481 82.6617 180.172 82.6617H178.107V90.5122H181.509C183.502 90.5122 185.058 90.5851 186.176 90.658C187.294 90.8038 188.096 90.9497 188.631 91.2413C189.141 91.533 189.36 91.9219 189.36 92.4323C189.36 93.4045 188.703 94.1336 187.367 94.5711C186.03 95.0815 184.329 95.3002 182.263 95.3002C180.197 95.3002 178.714 95.0086 177.596 94.328C176.478 93.7447 175.603 92.6267 174.996 91.1441C174.023 91.6545 172.93 92.1892 171.593 92.5538C170.256 92.9184 168.701 93.3558 166.853 93.8176L164.326 94.401C167.072 100.988 173.221 104.244 182.7 104.244C185.957 104.244 188.922 103.88 191.596 102.981C194.269 102.081 196.408 100.842 197.964 99.2133C199.519 97.512 200.346 95.519 200.346 93.1371C200.346 92.092 200.127 91.1441 199.616 90.1719C199.106 89.1997 198.28 88.3976 197.089 87.79L197.064 87.8629Z" fill="white"/>
<path d="M215.22 71.1182L202.63 103.784H213.884L216.12 97.3431H230.484C231.456 99.9438 232.185 102.083 232.793 103.784H244.435L231.772 71.1182H215.245H215.22ZM227.956 90.4649H218.769C220.762 84.899 222.317 80.8401 223.362 78.0937L224.48 80.9859C225.671 84.097 226.862 87.2809 227.956 90.3919V90.4649Z" fill="white"/>
<path d="M294.357 95.7878V71.2642L261.91 71.1913L261.983 80.3785C261.983 85.5555 261.91 88.9095 261.618 90.3921C261.254 92.1664 260.719 93.4303 260.063 94.2323C259.407 95.0344 258.362 95.5691 257.098 95.7878H254.886V111.343H265.556V104.683H285.632V111.197H296.301V95.7878H294.381H294.357ZM283.031 95.7878H271.608C271.754 95.3503 271.972 94.6698 272.045 93.7948C272.41 92.0206 272.629 90.2463 272.701 88.545C272.774 86.8436 272.847 84.8506 272.847 82.5417L272.92 79.941H283.007V95.7878H283.031Z" fill="white"/>
<path d="M310.957 90.8294C312.366 90.7565 314.505 90.7565 317.325 90.7565C322.137 90.7565 327.022 90.9023 332.151 91.0482V83.3435C327.047 83.5623 322.064 83.6352 317.325 83.6352C314.505 83.6352 312.366 83.5623 310.957 83.5623V79.2603H335.262V71.1182H300.36C300.579 76.9027 300.724 82.3713 300.724 87.4267C300.724 92.4822 300.579 97.9508 300.36 103.735H335.262C335.262 101.815 335.335 100.114 335.335 98.85C335.335 97.5862 335.48 96.3223 335.699 95.0828C330.595 95.3744 322.356 95.5203 310.957 95.5932V90.8537V90.8294Z" fill="white"/>
<path d="M366.08 87.5728C369.119 86.7707 371.33 85.5798 372.594 84.1701C373.858 82.7604 374.514 81.132 374.514 79.2848C374.514 77.4376 374.077 76.028 373.177 74.837C372.278 73.6461 370.796 72.7711 368.657 72.1635C366.518 71.5802 363.553 71.2642 359.834 71.2642H350.355V71.1913H339.758C339.977 76.9758 340.123 82.4444 340.123 87.4999C340.123 92.5553 339.977 98.0239 339.758 103.808H359.98C364.282 103.808 367.612 103.444 369.993 102.618C372.375 101.791 374.004 100.697 374.952 99.2877C375.924 97.878 376.361 96.1767 376.361 94.1108C376.361 89.8088 372.886 87.5971 366.056 87.5971L366.08 87.5728ZM350.307 79.4306V79.3577H358.983C360.758 79.3577 362.094 79.5036 362.848 79.7952C363.577 80.0869 363.966 80.6216 363.966 81.2778C363.966 82.1042 363.601 82.7604 362.848 83.0521C362.167 83.4166 360.855 83.5625 358.983 83.5625H350.307V79.4063V79.4306ZM364.306 94.6212C363.942 94.9858 363.334 95.2045 362.532 95.3503C361.73 95.4962 360.539 95.5691 358.983 95.5691V95.4962H350.307V90.9755H358.983C361.219 90.9755 362.678 91.1213 363.577 91.4859C364.403 91.8504 364.841 92.3851 364.841 93.1872C364.841 93.7705 364.695 94.2323 364.33 94.5969L364.306 94.6212Z" fill="white"/>
<path d="M405.868 71.1911H396.681C390.604 71.1911 386.375 72.1633 384.018 74.0834C381.563 76.0764 380.396 78.677 380.396 82.0068C380.396 84.6074 381.052 86.8191 382.316 88.5934C383.58 90.3676 385.719 91.7044 388.83 92.5308C388.465 92.9683 388.247 93.3328 388.101 93.6488L380.834 103.808H393.059C394.323 101.353 396.462 97.8778 399.281 93.3571H405.868V103.808H416.465C416.246 98.7771 416.173 93.2842 416.173 87.4997C416.173 81.7151 416.246 76.2465 416.465 71.1911V71.1182H405.868V71.1911ZM405.868 84.9719H399.792C397.264 84.9719 395.344 84.899 394.007 84.7532C392.67 84.5345 391.795 84.3157 391.261 83.9268C390.75 83.5623 390.507 83.0276 390.507 82.3713C390.507 81.7151 390.799 81.1804 391.261 80.8158C391.698 80.4512 392.597 80.2325 393.934 80.0867C395.271 79.9408 397.191 79.8679 399.792 79.8679H405.868V84.9719Z" fill="white"/>
<path d="M420.548 80.5973C425.141 80.4514 429.735 80.3056 434.183 80.3056V103.784H445.436V80.3056C449.884 80.3785 454.404 80.4514 459.144 80.5973V71.1913H420.548V80.5973Z" fill="white"/>
<path d="M496.792 84.8992C495.893 83.0521 494.264 81.6424 491.907 80.5973C489.622 79.5522 486.341 79.0418 482.282 79.0418V79.1147H474.286V71.1913H463.251C463.47 76.9758 463.616 82.4444 463.616 87.4999C463.616 92.5553 463.47 98.0239 463.251 103.808H474.286V103.736H482.282C488.213 103.736 492.369 102.69 494.726 100.552C497.011 98.4857 498.202 95.5205 498.202 91.656C498.202 88.9825 497.764 86.7707 496.792 84.9235V84.8992ZM487.459 93.5032C487.022 94.0136 486.268 94.3052 485.247 94.5483C484.202 94.767 482.574 94.8399 480.508 94.8399H474.213V87.7186H480.435C482.501 87.7186 484.056 87.7915 485.102 88.0103C486.22 88.1561 486.949 88.5207 487.41 89.0554C487.848 89.5658 488.067 90.2463 488.067 91.2671C488.067 92.2879 487.921 93.0414 487.483 93.5032H487.459Z" fill="white"/>
</svg>
