<svg width="20" height="20" viewBox="0 0 20 20" fill="none" xmlns="http://www.w3.org/2000/svg">
<path d="M15.5636 13.8486L15.4338 14.022L15.5869 14.1752L19.3826 17.9722L19.3826 17.9739L19.4582 18.0495C19.8473 18.4385 19.8473 19.0692 19.4582 19.4582L19.635 19.635L19.4582 19.4582C19.0692 19.8473 18.4384 19.8473 18.0493 19.4582L14.1764 15.5856L14.0232 15.4325L13.8498 15.5622C10.8291 17.8225 6.68025 17.8225 3.65956 15.5622C-0.100861 12.7485 -0.868125 7.41938 1.94582 3.65928C4.75977 -0.100824 10.0894 -0.868041 13.8498 1.94568C17.6103 4.7594 18.3775 10.0886 15.5636 13.8486ZM8.78697 15.265H8.78724C12.3639 15.2612 15.2624 12.3629 15.2662 8.7865V8.78624C15.2662 5.2081 12.3654 2.30751 8.78697 2.30751C5.20858 2.30751 2.30772 5.2081 2.30772 8.78624C2.30772 12.3644 5.20858 15.265 8.78697 15.265Z" fill="#270041" stroke="#F7F7F7" stroke-width="0.5"/>
</svg>
