<svg width="14" height="14" viewBox="0 0 14 14" fill="none" xmlns="http://www.w3.org/2000/svg">
<path d="M10.9545 9.73899L10.9026 9.80834L10.9639 9.8696L13.6436 12.5502L13.6436 12.5514L13.6738 12.5816C13.9754 12.8832 13.9754 13.3722 13.6738 13.6738L13.7445 13.7445L13.6738 13.6738C13.3722 13.9754 12.8831 13.9754 12.5815 13.6738L9.87043 10.963L9.80918 10.9017L9.73982 10.9536C7.59867 12.5557 4.65788 12.5557 2.51676 10.9536C-0.1487 8.9592 -0.692555 5.18179 1.30203 2.51656C3.29661 -0.148677 7.07435 -0.692493 9.73982 1.30193C12.4053 3.29635 12.9491 7.07376 10.9545 9.73899ZM6.15088 10.6105H6.15099C8.6133 10.6079 10.6087 8.61257 10.6114 6.15047V6.15037C10.6114 3.6871 8.61434 1.69026 6.15088 1.69026C3.68742 1.69026 1.69041 3.6871 1.69041 6.15037C1.69041 8.61364 3.68742 10.6105 6.15088 10.6105Z" fill="#FCA0B0" stroke="#FBE6EB" stroke-width="0.2"/>
</svg>
