<svg width="19" height="12" viewBox="0 0 19 12" fill="none" xmlns="http://www.w3.org/2000/svg">
<path d="M5 6.00001C5 5.4477 5.25397 5 5.56725 5H18.4328C18.746 5 19 5.4477 19 6.00001C19 6.5523 18.746 7 18.4328 7H5.56725C5.25397 7 5 6.5523 5 6.00001Z" fill="white"/>
<path d="M0 6.00001C0 5.4477 0.0362814 5 0.0810359 5H1.91897C1.96372 5 2 5.4477 2 6.00001C2 6.5523 1.96372 7 1.91897 7H0.0810359C0.0362814 7 0 6.5523 0 6.00001Z" fill="white"/>
<path d="M5 11C5 10.4477 5.25397 10 5.56725 10H18.4328C18.746 10 19 10.4477 19 11C19 11.5523 18.746 12 18.4328 12H5.56725C5.25397 12 5 11.5523 5 11Z" fill="white"/>
<path d="M0 11C0 10.4477 0.0362814 10 0.0810359 10H1.91897C1.96372 10 2 10.4477 2 11C2 11.5523 1.96372 12 1.91897 12H0.0810359C0.0362814 12 0 11.5523 0 11Z" fill="white"/>
<path d="M5 0.999998C5 0.447719 5.25397 0 5.56725 0H18.4328C18.746 0 19 0.447719 19 0.999998C19 1.55228 18.746 2 18.4328 2H5.56725C5.25397 2 5 1.55228 5 0.999998Z" fill="white"/>
<path d="M0 0.999998C0 0.447719 0.0362814 0 0.0810359 0H1.91897C1.96372 0 2 0.447719 2 0.999998C2 1.55228 1.96372 2 1.91897 2H0.0810359C0.0362814 2 0 1.55228 0 0.999998Z" fill="white"/>
</svg>
