<svg width="206" height="52" viewBox="0 0 206 52" fill="none" xmlns="http://www.w3.org/2000/svg">
<path d="M36.9895 1H15.0395C7.41953 1 1.16953 7.13 1.01953 14.72H7.11953C7.26953 10.48 10.7795 7.1 15.0495 7.1H36.9995C41.3595 7.1 44.9295 10.67 44.9295 15.03V33.93H51.0295V15.02C51.0295 7.28 44.7495 1 37.0095 1H36.9895Z" fill="#FD3657"/>
<path d="M7.11953 20.8197H23.2795C26.0195 20.8197 28.2795 22.9797 28.4595 25.6997H7.11953V20.8197H1.01953V31.7997H28.8895C30.2295 36.5597 34.5895 40.0297 39.7395 40.0297V33.9297C36.8695 33.9297 34.5595 31.6097 34.5595 28.7497V25.6997C34.4095 19.6297 29.4095 14.7197 23.2795 14.7197H7.11953V20.8197Z" fill="#FD3657"/>
<path d="M51.0193 33.9297V36.9797C51.0193 38.0197 50.8993 39.0497 50.6793 40.0297H44.3093C43.1193 42.8997 40.2893 44.9097 36.9893 44.9097H21.8393C22.7793 43.6297 24.3093 42.7797 26.0193 42.7797V36.6797C22.9993 36.6797 20.2593 37.8697 18.2193 39.8197C15.6593 36.2497 11.5093 33.9397 6.81934 33.9397V40.0397C11.1793 40.0397 14.7493 43.6097 14.7493 47.9697V51.0197H37.0093C43.6893 51.0197 49.2993 46.3197 50.6993 40.0397H50.7293C52.0693 40.0397 53.1693 41.1397 53.1693 42.4797H59.2693C59.2693 37.8797 55.6093 34.1297 51.0393 33.9397L51.0193 33.9297Z" fill="#FD3657"/>
<path d="M34.25 15.0203C34.25 16.5403 35.48 17.7603 36.99 17.7603C38.5 17.7603 39.73 16.5303 39.73 15.0203C39.73 13.5103 38.5 12.2803 36.99 12.2803C35.48 12.2803 34.25 13.5103 34.25 15.0203Z" fill="#FD3657"/>
<path d="M73.2506 20.5096H77.8806V10.8496C79.7106 10.8796 81.5706 10.9096 83.5206 10.9696V7.09961H67.6406V10.9696C69.5306 10.9096 71.4206 10.8496 73.2506 10.8496V20.5096Z" fill="white"/>
<path d="M93.3999 6.66992C90.5599 6.66992 88.4599 7.30992 87.1499 8.52992C85.8399 9.77992 85.1699 11.4899 85.1699 13.6799C85.1699 15.8699 85.8399 17.6399 87.1799 18.8599C88.5199 20.0799 90.5899 20.6899 93.3699 20.6899C96.1499 20.6899 98.3399 20.0799 99.6499 18.8599C100.96 17.6399 101.63 15.8999 101.63 13.6799C101.63 11.4599 100.96 9.74992 99.6499 8.52992C98.3399 7.27992 96.2399 6.66992 93.3999 6.66992ZM96.3599 16.1499C95.7799 16.6699 94.7699 16.9099 93.3999 16.9399C92.0599 16.9399 91.0799 16.6699 90.4699 16.1499C89.8599 15.6299 89.5599 14.8099 89.5599 13.7099C89.5599 12.6099 89.8599 11.8199 90.4699 11.2999C91.0499 10.7799 92.0199 10.5099 93.3999 10.5099C94.7799 10.5099 95.7499 10.7799 96.3599 11.2999C96.9699 11.8199 97.2799 12.6099 97.2799 13.7099C97.2799 14.8099 96.9699 15.6299 96.3599 16.1499Z" fill="white"/>
<path d="M107.67 20.5098V15.4798H114.47V20.5098H118.83C118.74 18.4398 118.71 16.1798 118.71 13.7998C118.71 11.4198 118.74 9.16984 118.83 7.08984H114.47V12.1198H107.67V7.08984H103.31C103.4 9.46984 103.46 11.7198 103.46 13.7998C103.46 15.8798 103.4 18.1298 103.31 20.5098H107.67Z" fill="white"/>
<path d="M124.831 20.5098V15.4798H131.631V20.5098H135.991C135.901 18.4398 135.871 16.1798 135.871 13.7998C135.871 11.4198 135.901 9.16984 135.991 7.08984H131.631V12.1198H124.831V7.08984H120.471C120.561 9.46984 120.621 11.7198 120.621 13.7998C120.621 15.8798 120.561 18.1298 120.471 20.5098H124.831Z" fill="white"/>
<path d="M142.48 17.8596H148.4C148.8 18.9296 149.1 19.8096 149.34 20.5096H154.13L148.92 7.05957H142.12L136.94 20.5096H141.57L142.48 17.8596ZM145.44 9.92957L145.9 11.1196C146.39 12.3996 146.88 13.7096 147.33 14.9896V15.0196H143.55C144.37 12.7296 145.01 11.0596 145.44 9.92957Z" fill="white"/>
<path d="M81.0804 36.1499C80.6204 35.9099 80.0104 35.7799 79.2504 35.7799C78.9604 35.7799 78.6704 35.7999 78.3704 35.8699C79.2604 35.5999 79.9704 35.3199 80.4704 35.0499C81.0504 34.7099 81.4503 34.4099 81.6303 34.0699C81.8403 33.7399 81.9304 33.3699 81.9304 32.9399C81.9304 32.2099 81.6604 31.5699 81.0804 30.9899C80.5004 30.4099 79.7103 29.9499 78.7003 29.6199C77.6903 29.2899 76.5704 29.1299 75.3204 29.1299C73.3704 29.1299 71.7803 29.4999 70.5603 30.2299C69.3103 30.9599 68.4004 31.9699 67.8204 33.3099C69.3104 33.5199 70.7203 33.9199 72.0303 34.4399C72.3303 33.7699 72.7303 33.2499 73.2803 32.8899C73.8303 32.5199 74.5303 32.3399 75.3803 32.3399C76.0503 32.3399 76.5403 32.4299 76.8403 32.6099C77.1503 32.8199 77.3004 33.0699 77.3004 33.3699C77.3004 33.6399 77.0003 33.7999 76.4203 33.8899C75.8403 33.9799 75.0803 34.0099 74.1303 34.0099H73.2803V37.2399H74.6804C75.5004 37.2399 76.1403 37.2699 76.6003 37.2999C77.0603 37.3599 77.3904 37.4199 77.6104 37.5399C77.8204 37.6599 77.9104 37.8199 77.9104 38.0299C77.9104 38.4299 77.6403 38.7299 77.0903 38.9099C76.5403 39.1199 75.8403 39.2099 74.9903 39.2099C74.1403 39.2099 73.5304 39.0899 73.0704 38.8099C72.6104 38.5699 72.2504 38.1099 72.0004 37.4999C71.6004 37.7099 71.1503 37.9299 70.6003 38.0799C70.0503 38.2299 69.4104 38.4099 68.6504 38.5999L67.6104 38.8399C68.7404 41.5499 71.2703 42.8899 75.1703 42.8899C76.5103 42.8899 77.7304 42.7399 78.8304 42.3699C79.9304 41.9999 80.8103 41.4899 81.4503 40.8199C82.0903 40.1199 82.4304 39.2999 82.4304 38.3199C82.4304 37.8899 82.3403 37.4999 82.1303 37.0999C81.9203 36.6999 81.5803 36.3699 81.0903 36.1199L81.0804 36.1499Z" fill="white"/>
<path d="M88.5504 29.26L83.3704 42.7H88.0004L88.9204 40.05H94.8304C95.2304 41.12 95.5304 42 95.7804 42.7H100.57L95.3604 29.26H88.5604H88.5504ZM93.7904 37.22H90.0104C90.8304 34.93 91.4704 33.26 91.9004 32.13L92.3604 33.32C92.8504 34.6 93.3404 35.91 93.7904 37.19V37.22Z" fill="white"/>
<path d="M121.11 39.41V29.32L107.76 29.29L107.79 33.07C107.79 35.2 107.76 36.58 107.64 37.19C107.49 37.92 107.27 38.44 107 38.77C106.73 39.1 106.3 39.32 105.78 39.41H104.87V45.81H109.26V43.07H117.52V45.75H121.91V39.41H121.12H121.11ZM116.45 39.41H111.75C111.81 39.23 111.9 38.95 111.93 38.59C112.08 37.86 112.17 37.13 112.2 36.43C112.23 35.73 112.26 34.91 112.26 33.96L112.29 32.89H116.44V39.41H116.45Z" fill="white"/>
<path d="M127.94 37.37C128.52 37.34 129.4 37.34 130.56 37.34C132.54 37.34 134.55 37.4 136.66 37.46V34.29C134.56 34.38 132.51 34.41 130.56 34.41C129.4 34.41 128.52 34.38 127.94 34.38V32.61H137.94V29.26H123.58C123.67 31.64 123.73 33.89 123.73 35.97C123.73 38.05 123.67 40.3 123.58 42.68H137.94C137.94 41.89 137.97 41.19 137.97 40.67C137.97 40.15 138.03 39.63 138.12 39.12C136.02 39.24 132.63 39.3 127.94 39.33V37.38V37.37Z" fill="white"/>
<path d="M150.62 36.03C151.87 35.7 152.78 35.21 153.3 34.63C153.82 34.05 154.09 33.38 154.09 32.62C154.09 31.86 153.91 31.28 153.54 30.79C153.17 30.3 152.56 29.94 151.68 29.69C150.8 29.45 149.58 29.32 148.05 29.32H144.15V29.29H139.79C139.88 31.67 139.94 33.92 139.94 36C139.94 38.08 139.88 40.33 139.79 42.71H148.11C149.88 42.71 151.25 42.56 152.23 42.22C153.21 41.88 153.88 41.43 154.27 40.85C154.67 40.27 154.85 39.57 154.85 38.72C154.85 36.95 153.42 36.04 150.61 36.04L150.62 36.03ZM144.13 32.68V32.65H147.7C148.43 32.65 148.98 32.71 149.29 32.83C149.59 32.95 149.75 33.17 149.75 33.44C149.75 33.78 149.6 34.05 149.29 34.17C149.01 34.32 148.47 34.38 147.7 34.38H144.13V32.67V32.68ZM149.89 38.93C149.74 39.08 149.49 39.17 149.16 39.23C148.83 39.29 148.34 39.32 147.7 39.32V39.29H144.13V37.43H147.7C148.62 37.43 149.22 37.49 149.59 37.64C149.93 37.79 150.11 38.01 150.11 38.34C150.11 38.58 150.05 38.77 149.9 38.92L149.89 38.93Z" fill="white"/>
<path d="M166.991 29.29H163.211C160.711 29.29 158.971 29.69 158.001 30.48C156.991 31.3 156.511 32.37 156.511 33.74C156.511 34.81 156.781 35.72 157.301 36.45C157.821 37.18 158.701 37.73 159.981 38.07C159.831 38.25 159.741 38.4 159.681 38.53L156.691 42.71H161.721C162.241 41.7 163.121 40.27 164.281 38.41H166.991V42.71H171.351C171.261 40.64 171.231 38.38 171.231 36C171.231 33.62 171.261 31.37 171.351 29.29V29.26H166.991V29.29ZM166.991 34.96H164.491C163.451 34.96 162.661 34.93 162.111 34.87C161.561 34.78 161.201 34.69 160.981 34.53C160.771 34.38 160.671 34.16 160.671 33.89C160.671 33.62 160.791 33.4 160.981 33.25C161.161 33.1 161.531 33.01 162.081 32.95C162.631 32.89 163.421 32.86 164.491 32.86H166.991V34.96Z" fill="white"/>
<path d="M173.03 33.16C174.92 33.1 176.81 33.04 178.64 33.04V42.7H183.27V33.04C185.1 33.07 186.96 33.1 188.91 33.16V29.29H173.03V33.16Z" fill="white"/>
<path d="M204.4 34.93C204.03 34.17 203.36 33.59 202.39 33.16C201.45 32.73 200.1 32.52 198.43 32.52V32.55H195.14V29.29H190.6C190.69 31.67 190.75 33.92 190.75 36C190.75 38.08 190.69 40.33 190.6 42.71H195.14V42.68H198.43C200.87 42.68 202.58 42.25 203.55 41.37C204.49 40.52 204.98 39.3 204.98 37.71C204.98 36.61 204.8 35.7 204.4 34.94V34.93ZM200.56 38.47C200.38 38.68 200.07 38.8 199.65 38.9C199.22 38.99 198.55 39.02 197.7 39.02H195.11V36.09H197.67C198.52 36.09 199.16 36.12 199.59 36.21C200.05 36.27 200.35 36.42 200.54 36.64C200.72 36.85 200.81 37.13 200.81 37.55C200.81 37.97 200.75 38.28 200.57 38.47H200.56Z" fill="white"/>
</svg>
