<svg width="145" height="37" viewBox="0 0 145 37" fill="none" xmlns="http://www.w3.org/2000/svg">
<g clip-path="url(#clip0_102_1331)">
<path d="M26.0365 0.711426H10.5862C5.22263 0.711426 0.823356 5.07316 0.717773 10.4737H5.01146C5.11705 7.45681 7.58768 5.05181 10.5933 5.05181H26.0435C29.1124 5.05181 31.6253 7.592 31.6253 10.6943V24.1424H35.919V10.6872C35.919 5.17989 31.4986 0.711426 26.0505 0.711426H26.0365Z" fill="#FD3657"/>
<path d="M5.01146 14.814H16.3862C18.3149 14.814 19.9056 16.3509 20.0323 18.2863H5.01146V14.814H0.717773V22.6267H20.335C21.2782 26.0136 24.3471 28.4827 27.9721 28.4827V24.1423C25.952 24.1423 24.326 22.4915 24.326 20.4565V18.2863C24.2204 13.9673 20.701 10.4736 16.3862 10.4736H5.01146V14.814Z" fill="#FD3657"/>
<path d="M35.9119 24.1421V26.3123C35.9119 27.0523 35.8275 27.7852 35.6726 28.4825H31.1889C30.3513 30.5246 28.3593 31.9548 26.0365 31.9548H15.3726C16.0343 31.044 17.1112 30.4392 18.3149 30.4392V26.0988C16.1891 26.0988 14.2605 26.9456 12.8246 28.3331C11.0226 25.7929 8.10151 24.1492 4.80029 24.1492V28.4896C7.86923 28.4896 10.3821 31.0298 10.3821 34.1321V36.3023H26.0505C30.7525 36.3023 34.7013 32.9581 35.6867 28.4896H35.7078C36.651 28.4896 37.4253 29.2723 37.4253 30.2257H41.719C41.719 26.9527 39.1428 24.2844 35.926 24.1492L35.9119 24.1421Z" fill="#FD3657"/>
<path d="M24.1079 10.6874C24.1079 11.7689 24.9737 12.637 26.0366 12.637C27.0994 12.637 27.9652 11.7618 27.9652 10.6874C27.9652 9.61299 27.0994 8.73779 26.0366 8.73779C24.9737 8.73779 24.1079 9.61299 24.1079 10.6874Z" fill="#FD3657"/>
<path d="M51.5596 14.5935H54.8186V7.72003C56.1067 7.74137 57.4159 7.76272 58.7885 7.80541V5.05176H47.6108V7.80541C48.9412 7.76272 50.2715 7.72003 51.5596 7.72003V14.5935Z" fill="#270041"/>
<path d="M65.7427 4.74585C63.7436 4.74585 62.2655 5.20123 61.3434 6.06931C60.4213 6.95873 59.9497 8.17546 59.9497 9.73373C59.9497 11.292 60.4213 12.5514 61.3645 13.4195C62.3077 14.2876 63.7648 14.7216 65.7216 14.7216C67.6784 14.7216 69.2199 14.2876 70.1419 13.4195C71.064 12.5514 71.5356 11.3133 71.5356 9.73373C71.5356 8.15412 71.064 6.93739 70.1419 6.06931C69.2199 5.17989 67.7417 4.74585 65.7427 4.74585ZM67.8262 11.4912C67.4179 11.8612 66.707 12.032 65.7427 12.0533C64.7995 12.0533 64.1097 11.8612 63.6803 11.4912C63.2509 11.1212 63.0398 10.5378 63.0398 9.75508C63.0398 8.97239 63.2509 8.41027 63.6803 8.04027C64.0885 7.67027 64.7713 7.47816 65.7427 7.47816C66.714 7.47816 67.3968 7.67027 67.8262 8.04027C68.2555 8.41027 68.4737 8.97239 68.4737 9.75508C68.4737 10.5378 68.2555 11.1212 67.8262 11.4912Z" fill="#270041"/>
<path d="M75.7872 14.5935V11.0145H80.5736V14.5935H83.6425C83.5792 13.1206 83.5581 11.5126 83.5581 9.8191C83.5581 8.12564 83.5792 6.52468 83.6425 5.04468H80.5736V8.62372H75.7872V5.04468H72.7183C72.7816 6.73814 72.8238 8.3391 72.8238 9.8191C72.8238 11.2991 72.7816 12.9001 72.7183 14.5935H75.7872Z" fill="#270041"/>
<path d="M87.8663 14.5935V11.0145H92.6527V14.5935H95.7216C95.6583 13.1206 95.6372 11.5126 95.6372 9.8191C95.6372 8.12564 95.6583 6.52468 95.7216 5.04468H92.6527V8.62372H87.8663V5.04468H84.7974C84.8607 6.73814 84.9029 8.3391 84.9029 9.8191C84.9029 11.2991 84.8607 12.9001 84.7974 14.5935H87.8663Z" fill="#270041"/>
<path d="M100.29 12.7078H104.457C104.738 13.4692 104.949 14.0953 105.118 14.5934H108.49L104.823 5.02319H100.036L96.3901 14.5934H99.6491L100.29 12.7078ZM102.373 7.06531L102.697 7.91204C103.042 8.82281 103.387 9.75492 103.703 10.6657V10.687H101.043C101.62 9.05762 102.07 7.86935 102.373 7.06531Z" fill="#270041"/>
<path d="M57.0712 25.7221C56.7474 25.5513 56.318 25.4588 55.783 25.4588C55.5789 25.4588 55.3748 25.473 55.1636 25.5228C55.7901 25.3307 56.2898 25.1315 56.6418 24.9394C57.05 24.6974 57.3316 24.484 57.4583 24.2421C57.6061 24.0072 57.6695 23.744 57.6695 23.438C57.6695 22.9186 57.4794 22.4632 57.0712 22.0505C56.6629 21.6378 56.1068 21.3105 55.3959 21.0757C54.685 20.8409 53.8966 20.7271 53.0168 20.7271C51.6442 20.7271 50.525 20.9903 49.6663 21.5097C48.7864 22.0292 48.1459 22.7478 47.7377 23.7013C48.7864 23.8507 49.7789 24.1353 50.701 24.5053C50.9122 24.0286 51.1937 23.6586 51.5809 23.4024C51.968 23.1392 52.4607 23.0111 53.059 23.0111C53.5306 23.0111 53.8755 23.0751 54.0867 23.2032C54.3049 23.3526 54.4105 23.5305 54.4105 23.744C54.4105 23.9361 54.1993 24.0499 53.7911 24.114C53.3828 24.178 52.8479 24.1994 52.1792 24.1994H51.5809V26.4976H52.5663C53.1435 26.4976 53.594 26.519 53.9178 26.5403C54.2415 26.583 54.4738 26.6257 54.6287 26.7111C54.7765 26.7965 54.8398 26.9103 54.8398 27.0597C54.8398 27.3444 54.6498 27.5578 54.2627 27.6859C53.8755 27.8353 53.3828 27.8994 52.7845 27.8994C52.1862 27.8994 51.7568 27.814 51.433 27.6147C51.1093 27.444 50.8559 27.1167 50.6799 26.6826C50.3983 26.8321 50.0816 26.9886 49.6945 27.0953C49.3073 27.2021 48.8568 27.3301 48.3219 27.4653L47.5898 27.6361C48.3852 29.5644 50.1661 30.5178 52.9112 30.5178C53.8544 30.5178 54.7131 30.4111 55.4874 30.1478C56.2617 29.8846 56.8811 29.5217 57.3316 29.0449C57.7821 28.5469 58.0214 27.9634 58.0214 27.2661C58.0214 26.9601 57.958 26.6826 57.8102 26.398C57.6624 26.1134 57.4231 25.8786 57.0782 25.7007L57.0712 25.7221Z" fill="#270041"/>
<path d="M62.3292 20.8196L58.6831 30.3827H61.9421L62.5897 28.4971H66.7496C67.0312 29.2584 67.2423 29.8846 67.4183 30.3827H70.7899L67.1227 20.8196H62.3363H62.3292ZM66.0176 26.4834H63.3569C63.9341 24.854 64.3846 23.6657 64.6872 22.8617L65.011 23.7084C65.3559 24.6192 65.7008 25.5513 66.0176 26.4621V26.4834Z" fill="#270041"/>
<path d="M85.2475 28.0418V20.8624L75.8506 20.8411L75.8717 23.5307C75.8717 25.0463 75.8506 26.0282 75.7662 26.4622C75.6606 26.9816 75.5057 27.3516 75.3157 27.5864C75.1256 27.8213 74.823 27.9778 74.4569 28.0418H73.8164V32.5957H76.9065V30.6461H82.7205V32.553H85.8106V28.0418H85.2545H85.2475ZM81.9674 28.0418H78.6591C78.7014 27.9138 78.7647 27.7145 78.7858 27.4584C78.8914 26.9389 78.9548 26.4195 78.9759 25.9214C78.997 25.4234 79.0181 24.8399 79.0181 24.1639L79.0392 23.4026H81.9603V28.0418H81.9674Z" fill="#270041"/>
<path d="M90.0548 26.5902C90.463 26.5688 91.0824 26.5688 91.8989 26.5688C93.2926 26.5688 94.7074 26.6115 96.1926 26.6542V24.3986C94.7145 24.4627 93.2715 24.484 91.8989 24.484C91.0824 24.484 90.463 24.4627 90.0548 24.4627V23.2032H97.0936V20.8196H86.9858C87.0492 22.513 87.0914 24.114 87.0914 25.594C87.0914 27.074 87.0492 28.675 86.9858 30.3684H97.0936C97.0936 29.8063 97.1147 29.3082 97.1147 28.9382C97.1147 28.5682 97.157 28.1982 97.2203 27.8353C95.7421 27.9207 93.356 27.9634 90.0548 27.9848V26.5973V26.5902Z" fill="#270041"/>
<path d="M106.019 25.6368C106.899 25.402 107.539 25.0534 107.905 24.6407C108.271 24.228 108.462 23.7513 108.462 23.2105C108.462 22.6697 108.335 22.257 108.074 21.9084C107.814 21.5597 107.385 21.3036 106.765 21.1257C106.146 20.9549 105.287 20.8624 104.21 20.8624H101.465V20.8411H98.396C98.4593 22.5345 98.5016 24.1355 98.5016 25.6155C98.5016 27.0955 98.4593 28.6964 98.396 30.3899H104.252C105.498 30.3899 106.463 30.2832 107.152 30.0413C107.842 29.7993 108.314 29.4791 108.588 29.0664C108.87 28.6538 108.996 28.1557 108.996 27.5509C108.996 26.2914 107.99 25.6439 106.012 25.6439L106.019 25.6368ZM101.451 23.2532V23.2318H103.964C104.478 23.2318 104.865 23.2745 105.083 23.3599C105.294 23.4453 105.407 23.6018 105.407 23.7939C105.407 24.0359 105.301 24.228 105.083 24.3134C104.886 24.4201 104.506 24.4628 103.964 24.4628H101.451V23.2461V23.2532ZM105.505 27.7003C105.4 27.807 105.224 27.8711 104.991 27.9138C104.759 27.9564 104.414 27.9778 103.964 27.9778V27.9564H101.451V26.633H103.964C104.611 26.633 105.034 26.6757 105.294 26.7824C105.533 26.8891 105.66 27.0457 105.66 27.2805C105.66 27.4513 105.618 27.5864 105.512 27.6932L105.505 27.7003Z" fill="#270041"/>
<path d="M117.542 20.8409H114.882C113.122 20.8409 111.897 21.1255 111.214 21.6877C110.503 22.2711 110.166 23.0325 110.166 24.0073C110.166 24.7686 110.356 25.4161 110.722 25.9355C111.088 26.455 111.707 26.8463 112.608 27.0882C112.502 27.2163 112.439 27.323 112.397 27.4155L110.292 30.3898H113.833C114.199 29.6711 114.818 28.6536 115.635 27.3302H117.542V30.3898H120.611C120.548 28.9169 120.527 27.3088 120.527 25.6153C120.527 23.9219 120.548 22.3209 120.611 20.8409V20.8196H117.542V20.8409ZM117.542 24.8753H115.783C115.05 24.8753 114.494 24.854 114.107 24.8113C113.72 24.7473 113.467 24.6832 113.312 24.5694C113.164 24.4627 113.094 24.3061 113.094 24.114C113.094 23.9219 113.178 23.7653 113.312 23.6586C113.439 23.5519 113.699 23.4878 114.086 23.4452C114.473 23.4025 115.029 23.3811 115.783 23.3811H117.542V24.8753Z" fill="#270041"/>
<path d="M121.793 23.5947C123.124 23.552 124.454 23.5093 125.742 23.5093V30.3828H129.001V23.5093C130.289 23.5307 131.599 23.552 132.971 23.5947V20.8411H121.793V23.5947Z" fill="#270041"/>
<path d="M143.874 24.8541C143.614 24.3134 143.142 23.9007 142.459 23.5947C141.798 23.2888 140.848 23.1393 139.672 23.1393V23.1607H137.356V20.8411H134.161C134.224 22.5345 134.266 24.1355 134.266 25.6155C134.266 27.0955 134.224 28.6964 134.161 30.3899H137.356V30.3686H139.672C141.39 30.3686 142.593 30.0626 143.276 29.4364C143.938 28.8316 144.282 27.9636 144.282 26.8322C144.282 26.0495 144.156 25.402 143.874 24.8613V24.8541ZM141.171 27.373C141.045 27.5224 140.826 27.6078 140.531 27.6789C140.228 27.743 139.757 27.7643 139.158 27.7643H137.335V25.6795H139.137C139.735 25.6795 140.186 25.7009 140.489 25.7649C140.812 25.8076 141.023 25.9143 141.157 26.0709C141.284 26.2203 141.347 26.4195 141.347 26.7184C141.347 27.0172 141.305 27.2378 141.178 27.373H141.171Z" fill="#270041"/>
</g>
<defs>
<clipPath id="clip0_102_1331">
<rect width="145" height="37" fill="white"/>
</clipPath>
</defs>
</svg>
